# xmcd CD database file
#
# Track frame offsets:
#	150
#	14158
#	29538
#	43504
#	57700
#	69911
#	91492
#	105228
#	119866
#	133142
#	146767
#	161127
#	175908
#	188982
#	202763
#	218014
#	231548
#	246301
#	259288
#	274191
#	287934
#	301538
#	316894
#	330623
#	343816
#
# Disc length: 4723 seconds
#
# Revision: 0
# Processed by: cddbd v1.5.2PL0 Copyright (c) Steve Scherf et al.
# Submitted via: CDex 1.51
#
DISCID=8c127119
DTITLE=White Country Blues, 1926-1938: A Lighter Shade Of Blue - White Country Blues, 1926-1938: A Lighter Shade Of Blue - Disc 1
DYEAR=1993
DGENRE=Blues
TTITLE0=K.C. Blues - Frank Hutchison
TTITLE1=Cannonball Blues - Frank Hutchison
TTITLE2=Leaving Home - Charlie Poole With The North Carolina
TTITLE3=If The River Was Whiskey - Charlie Poole
TTITLE4=Duplin County Blues - Cauley Family
TTITLE5=Sweet Sarah Blues - Label Copy Conversion
TTITLE6=Frankie Dean - Label Copy Conversion
TTITLE7=A Darkey's Wall - Riley Puckett
TTITLE8=Johnson City Blues - Clarence Green
TTITLE9=Mistreated Blues - Label Copy Conversion
TTITLE10=Haunted Road Blues - Tom Ashley
TTITLE11=Steel Guitar Blues - Roy Acuff and His Crazy Tennesseans
TTITLE12=Guitar Blues - Carlisle and Ball
TTITLE13=I Want A Good Woman - Carlisle and Ball
TTITLE14=Ash Can Blues - Cliff Carlisle
TTITLE15=Yodel Blues (Part 1) - Val and Pete
TTITLE16=Yodel Blues (Part 2) - Label Copy Conversion
TTITLE17=Adam And Eve (Part 2) - Mr and Mrs Chris Bouchillon
TTITLE18=Carroll County Blues - W.T. Narmour and S.W. Smith
TTITLE19=Ramblin' Blues - Charlie Poole With The North
TTITLE20=Worried Blues - Frank Hutchison
TTITLE21=Train That Carried The Girl From Town - Frank Hutchison
TTITLE22=Lonesome Weary Blues - Label Copy Conversion
TTITLE23=Bear Cat Mama - W. Lee O'Daniel and His Hillbilly Boys
TTITLE24=Unknown Hidden Track
EXTD=YEAR: 1993
EXTT0=
EXTT1=
EXTT2=
EXTT3=
EXTT4=
EXTT5=
EXTT6=
EXTT7=
EXTT8=
EXTT9=
EXTT10=
EXTT11=
EXTT12=
EXTT13=
EXTT14=
EXTT15=
EXTT16=
EXTT17=
EXTT18=
EXTT19=
EXTT20=
EXTT21=
EXTT22=
EXTT23=
EXTT24=
PLAYORDER=
